<?xml version="1.0" encoding="UTF-8" standalone="no"?> <svg width="64" height="64" viewBox="0 0 64 64" fill="none" xmlns="http://www.w3.org/2000/svg">
<path d="M43 15C42.0906 15.0116 41.1838 15.1019 40.29 15.27L39.82 14C39.5154 13.306 38.9595 12.753 38.2639 12.4522C37.5683 12.1513 36.7846 12.1248 36.0703 12.3781C35.356 12.6314 34.764 13.1457 34.4133 13.8176C34.0627 14.4895 33.9793 15.2692 34.18 16L34.66 17.32C32.3454 18.7335 30.4281 20.7122 29.0881 23.0702C27.7482 25.4282 27.0297 28.0881 27 30.8L23.07 40.63C23.0096 40.7814 22.9871 40.9453 23.0046 41.1074C23.022 41.2695 23.0788 41.4249 23.17 41.56C23.2617 41.6957 23.3854 41.8068 23.5301 41.8835C23.6748 41.9603 23.8362 42.0002 24 42H27V45C27 47.3869 27.9482 49.6761 29.636 51.364C31.3239 53.0518 33.613 54 36 54H39V61C39 61.2652 39.1054 61.5196 39.2929 61.7071C39.4804 61.8946 39.7348 62 40 62C40.2652 62 40.5196 61.8946 40.7071 61.7071C40.8946 61.5196 41 61.2652 41 61V52.87C41 52.7256 40.9687 52.5828 40.9083 52.4516C40.8479 52.3204 40.7598 52.2039 40.65 52.11C40.5398 52.0151 40.4103 51.9453 40.2704 51.9056C40.1305 51.8659 39.9836 51.8571 39.84 51.88C39.3973 51.9562 38.9492 51.9963 38.5 52H36C34.1435 52 32.363 51.2625 31.0502 49.9497C29.7375 48.637 29 46.8565 29 45V41C29 40.7348 28.8946 40.4804 28.7071 40.2929C28.5196 40.1054 28.2652 40 28 40H25.48L28.93 31.37C28.978 31.2527 29.0019 31.1268 29 31C29.0003 28.67 29.5821 26.3769 30.6927 24.3286C31.8032 22.2803 33.4075 20.5415 35.36 19.27L37.36 24.9C37.4019 25.027 37.4688 25.1442 37.5568 25.2449C37.6449 25.3455 37.7522 25.4275 37.8724 25.486C37.9927 25.5444 38.1234 25.5782 38.2569 25.5852C38.3904 25.5923 38.524 25.5724 38.6498 25.527C38.7755 25.4815 38.8908 25.4113 38.9889 25.3204C39.087 25.2296 39.166 25.12 39.221 24.9982C39.276 24.8763 39.3061 24.7447 39.3093 24.611C39.3126 24.4774 39.289 24.3444 39.24 24.22L36.01 15.34C35.91 15.0965 35.91 14.8235 36.01 14.58C36.0658 14.4599 36.145 14.3521 36.2428 14.2628C36.3407 14.1735 36.4553 14.1046 36.58 14.06C36.8293 13.9699 37.1042 13.9825 37.3442 14.0951C37.5842 14.2076 37.7697 14.4108 37.86 14.66L42.07 26.22C40.2525 26.6658 38.6487 27.7346 37.5378 29.2406C36.4269 30.7466 35.879 32.5943 35.9896 34.4625C36.1002 36.3306 36.8622 38.1008 38.1431 39.4652C39.4239 40.8296 41.1426 41.7018 43 41.93V43C43 43.7956 42.6839 44.5587 42.1213 45.1213C41.5587 45.6839 40.7956 46 40 46H39.82C39.6137 45.4165 39.2319 44.911 38.7271 44.5529C38.2222 44.1949 37.6189 44.0017 37 44H35C34.2043 44 33.4413 44.3161 32.8787 44.8787C32.3161 45.4413 32 46.2044 32 47C32 47.7956 32.3161 48.5587 32.8787 49.1213C33.4413 49.6839 34.2043 50 35 50H37C37.6189 49.9983 38.2222 49.8051 38.7271 49.4471C39.2319 49.089 39.6137 48.5835 39.82 48H40C40.6566 48 41.3068 47.8707 41.9134 47.6194C42.52 47.3681 43.0712 46.9998 43.5355 46.5355C43.9998 46.0712 44.3681 45.52 44.6194 44.9134C44.8707 44.3068 45 43.6566 45 43V41.93C46.9956 41.6707 48.8203 40.6689 50.1101 39.1241C51.3999 37.5794 52.0602 35.6053 51.9592 33.5954C51.8583 31.5855 51.0036 29.6875 49.5655 28.2798C48.1274 26.8721 46.2116 26.058 44.2 26L41 17.17C42.9887 16.8574 45.0217 16.9821 46.9574 17.5354C48.893 18.0887 50.6848 19.0573 52.2079 20.3738C53.7309 21.6903 54.9487 23.323 55.7763 25.1582C56.6039 26.9934 57.0215 28.9869 57 31V61C57 61.2652 57.1053 61.5196 57.2929 61.7071C57.4804 61.8946 57.7348 62 58 62C58.2652 62 58.5196 61.8946 58.7071 61.7071C58.8946 61.5196 59 61.2652 59 61V31C59 26.7565 57.3143 22.6869 54.3137 19.6863C51.3131 16.6857 47.2435 15 43 15ZM37 48H35C34.7348 48 34.4804 47.8946 34.2929 47.7071C34.1054 47.5196 34 47.2652 34 47C34 46.7348 34.1054 46.4804 34.2929 46.2929C34.4804 46.1054 34.7348 46 35 46H37C37.2652 46 37.5196 46.1054 37.7071 46.2929C37.8946 46.4804 38 46.7348 38 47C38 47.2652 37.8946 47.5196 37.7071 47.7071C37.5196 47.8946 37.2652 48 37 48ZM50 34C49.9959 35.1645 49.6531 36.3026 49.0133 37.2756C48.3735 38.2486 47.4644 39.0144 46.3969 39.4796C45.3294 39.9448 44.1495 40.0893 43.0013 39.8954C41.853 39.7016 40.786 39.1778 39.9303 38.3879C39.0747 37.5981 38.4673 36.5763 38.1824 35.4472C37.8975 34.3181 37.9473 33.1305 38.3257 32.0292C38.7041 30.928 39.3949 29.9606 40.3137 29.2451C41.2324 28.5297 42.3396 28.097 43.5 28V28H44C45.5913 28 47.1174 28.6321 48.2426 29.7574C49.3679 30.8826 50 32.4087 50 34V34Z" fill="black"/>
<path d="M41 34C41 34.5933 41.1759 35.1734 41.5056 35.6667C41.8352 36.1601 42.3038 36.5446 42.852 36.7716C43.4001 36.9987 44.0033 37.0581 44.5853 36.9424C45.1672 36.8266 45.7018 36.5409 46.1213 36.1213C46.5409 35.7018 46.8266 35.1672 46.9424 34.5853C47.0581 34.0033 46.9987 33.4001 46.7716 32.852C46.5446 32.3038 46.1601 31.8352 45.6667 31.5056C45.1734 31.1759 44.5933 31 44 31C43.2044 31 42.4413 31.3161 41.8787 31.8787C41.3161 32.4413 41 33.2044 41 34ZM45 34C45 34.1978 44.9414 34.3911 44.8315 34.5556C44.7216 34.72 44.5654 34.8482 44.3827 34.9239C44.2 34.9996 43.9989 35.0194 43.8049 34.9808C43.6109 34.9422 43.4327 34.847 43.2929 34.7071C43.153 34.5673 43.0578 34.3891 43.0192 34.1951C42.9806 34.0011 43.0004 33.8 43.0761 33.6173C43.1518 33.4346 43.28 33.2784 43.4444 33.1685C43.6089 33.0586 43.8022 33 44 33C44.2652 33 44.5196 33.1054 44.7071 33.2929C44.8946 33.4804 45 33.7348 45 34Z" fill="black"/>
<path d="M7 17H12C12.2652 17 12.5196 16.8946 12.7071 16.7071C12.8946 16.5196 13 16.2652 13 16C13 15.7348 12.8946 15.4804 12.7071 15.2929C12.5196 15.1054 12.2652 15 12 15H7C6.20435 15 5.44129 14.6839 4.87868 14.1213C4.31607 13.5587 4 12.7956 4 12V7C4 6.20435 4.31607 5.44129 4.87868 4.87868C5.44129 4.31607 6.20435 4 7 4H22C22.7956 4 23.5587 4.31607 24.1213 4.87868C24.6839 5.44129 25 6.20435 25 7V12C25 12.7956 24.6839 13.5587 24.1213 14.1213C23.5587 14.6839 22.7956 15 22 15C21.7348 15 21.4804 15.1054 21.2929 15.2929C21.1054 15.4804 21 15.7348 21 16V19.59L16.71 15.29C16.6168 15.1968 16.5061 15.1228 16.3842 15.0723C16.2624 15.0219 16.1319 14.9959 16 14.9959C15.8681 14.9959 15.7376 15.0219 15.6158 15.0723C15.4939 15.1228 15.3832 15.1968 15.29 15.29C15.1968 15.3832 15.1228 15.4939 15.0723 15.6158C15.0219 15.7376 14.9959 15.8681 14.9959 16C14.9959 16.2663 15.1017 16.5217 15.29 16.71L21.29 22.71C21.3834 22.8027 21.4943 22.876 21.6161 22.9258C21.7379 22.9755 21.8684 23.0008 22 23C22.1312 23.0034 22.2613 22.976 22.38 22.92C22.5626 22.845 22.7189 22.7176 22.8293 22.5539C22.9396 22.3901 22.999 22.1974 23 22V16.9C24.1294 16.6695 25.1444 16.0558 25.8733 15.1629C26.6022 14.27 27.0002 13.1527 27 12V7C27 5.67392 26.4732 4.40215 25.5355 3.46447C24.5979 2.52678 23.3261 2 22 2H7C5.67392 2 4.40215 2.52678 3.46447 3.46447C2.52678 4.40215 2 5.67392 2 7V12C2 13.3261 2.52678 14.5979 3.46447 15.5355C4.40215 16.4732 5.67392 17 7 17V17Z" fill="black"/>
<path d="M21 7C21 6.73478 20.8946 6.48043 20.7071 6.29289C20.5196 6.10536 20.2652 6 20 6H11C10.7348 6 10.4804 6.10536 10.2929 6.29289C10.1054 6.48043 10 6.73478 10 7C10 7.26522 10.1054 7.51957 10.2929 7.70711C10.4804 7.89464 10.7348 8 11 8H20C20.2652 8 20.5196 7.89464 20.7071 7.70711C20.8946 7.51957 21 7.26522 21 7Z" fill="black"/>
<path d="M7 11C7 11.2652 7.10536 11.5196 7.29289 11.7071C7.48043 11.8946 7.73478 12 8 12H15C15.2652 12 15.5196 11.8946 15.7071 11.7071C15.8946 11.5196 16 11.2652 16 11C16 10.7348 15.8946 10.4804 15.7071 10.2929C15.5196 10.1054 15.2652 10 15 10H8C7.73478 10 7.48043 10.1054 7.29289 10.2929C7.10536 10.4804 7 10.7348 7 11Z" fill="black"/>
<path d="M19 12C19.5523 12 20 11.5523 20 11C20 10.4477 19.5523 10 19 10C18.4477 10 18 10.4477 18 11C18 11.5523 18.4477 12 19 12Z" fill="black"/>
<path d="M23 52H18V51C18 50.7348 17.8946 50.4804 17.7071 50.2929C17.5196 50.1054 17.2652 50 17 50H3C2.73478 50 2.48043 50.1054 2.29289 50.2929C2.10536 50.4804 2 50.7348 2 51V61C2 61.2652 2.10536 61.5196 2.29289 61.7071C2.48043 61.8946 2.73478 62 3 62H17C17.2652 62 17.5196 61.8946 17.7071 61.7071C17.8946 61.5196 18 61.2652 18 61V59.41L23.71 53.71C23.8488 53.5694 23.9428 53.3908 23.9801 53.1968C24.0175 53.0028 23.9966 52.8021 23.92 52.62C23.845 52.4374 23.7176 52.2811 23.5539 52.1707C23.3901 52.0604 23.1974 52.001 23 52ZM14.3 52L10 55.68L5.7 52H14.3ZM16 60H4V53.17L9.35 57.76C9.53113 57.9149 9.76165 58.0001 10 58.0001C10.2384 58.0001 10.4689 57.9149 10.65 57.76L16 53.17V60ZM18 56.59V54H20.59L18 56.59Z" fill="black"/>
<path d="M19.72 31.23L17.72 27.77C17.5881 27.5413 17.371 27.374 17.1163 27.3047C16.8615 27.2354 16.5896 27.2696 16.36 27.4L14.9 28.24C14.5821 28.027 14.2477 27.8397 13.9 27.68V26C13.9 25.7348 13.7946 25.4804 13.6071 25.2929C13.4196 25.1054 13.1652 25 12.9 25H8.89999C8.63478 25 8.38042 25.1054 8.19289 25.2929C8.00535 25.4804 7.9 25.7348 7.9 26V27.68C7.5525 27.8402 7.21814 28.0274 6.9 28.24L5.5 27.4C5.38586 27.3339 5.25977 27.291 5.129 27.2738C4.99822 27.2566 4.86533 27.2655 4.73799 27.2999C4.61065 27.3343 4.49137 27.3935 4.38703 27.4742C4.28268 27.5549 4.19533 27.6554 4.13 27.77L2.13 31.23C2.06388 31.3441 2.02099 31.4702 2.00381 31.601C1.98662 31.7318 1.99548 31.8647 2.02987 31.992C2.06426 32.1193 2.12351 32.2386 2.20419 32.343C2.28488 32.4473 2.38541 32.5347 2.5 32.6L4 33.44C4 33.63 4 33.81 4 34C4 34.19 4 34.37 4 34.56L2.5 35.4C2.38541 35.4653 2.28488 35.5527 2.20419 35.657C2.12351 35.7614 2.06426 35.8807 2.02987 36.008C1.99548 36.1353 1.98662 36.2682 2.00381 36.399C2.02099 36.5298 2.06388 36.6559 2.13 36.77C2.19616 36.8838 2.28412 36.9833 2.38885 37.063C2.49357 37.1427 2.61299 37.2009 2.74027 37.2344C2.86754 37.2678 3.00016 37.2758 3.13053 37.2579C3.2609 37.24 3.38646 37.1965 3.5 37.13L5.5 35.96C5.68241 35.859 5.82867 35.7034 5.91833 35.5152C6.00798 35.3269 6.03653 35.1153 6 34.91C5.88011 34.3093 5.88011 33.6907 6 33.09C6.04834 32.8819 6.02879 32.6639 5.94421 32.4677C5.85964 32.2716 5.71448 32.1077 5.53 32L4.37 31.33L5.37 29.59L6.53 30.27C6.70951 30.3729 6.91652 30.4176 7.12249 30.3979C7.32846 30.3782 7.52324 30.2951 7.68 30.16C8.1476 29.764 8.68285 29.4558 9.26 29.25C9.45513 29.1818 9.62434 29.0548 9.74432 28.8864C9.86431 28.7181 9.92917 28.5167 9.93 28.31V27H11.93V28.35C11.9301 28.5555 11.9935 28.756 12.1116 28.9242C12.2297 29.0924 12.3967 29.2201 12.59 29.29C13.1693 29.4912 13.7053 29.7999 14.17 30.2C14.3267 30.3351 14.5215 30.4182 14.7275 30.4379C14.9335 30.4576 15.1405 30.4129 15.32 30.31L16.49 29.63L17.49 31.37L16.32 32C16.1413 32.1039 15.9991 32.2607 15.9132 32.4487C15.8272 32.6368 15.8016 32.8468 15.84 33.05C15.9599 33.6507 15.9599 34.2693 15.84 34.87C15.783 35.0849 15.7992 35.3127 15.8862 35.5173C15.9731 35.722 16.1257 35.8918 16.32 36L17.49 36.67L16.49 38.41L15.32 37.73C15.1405 37.6271 14.9335 37.5824 14.7275 37.6021C14.5215 37.6218 14.3267 37.7049 14.17 37.84C13.7053 38.2401 13.1693 38.5488 12.59 38.75C12.3967 38.8199 12.2297 38.9476 12.1116 39.1158C11.9935 39.284 11.9301 39.4845 11.93 39.69V41H9.93V39.65C9.92917 39.4433 9.86431 39.2419 9.74432 39.0736C9.62434 38.9052 9.45513 38.7782 9.26 38.71C8.68285 38.5042 8.1476 38.196 7.68 37.8C7.52324 37.6649 7.32846 37.5818 7.12249 37.5621C6.91652 37.5424 6.70951 37.5871 6.53 37.69L4.53 38.87C4.30126 39.0019 4.13399 39.2189 4.06467 39.4737C3.99536 39.7285 4.02962 40.0004 4.16 40.23C4.22533 40.3446 4.31268 40.4451 4.41703 40.5258C4.52137 40.6065 4.64065 40.6657 4.76799 40.7001C4.89533 40.7345 5.02822 40.7434 5.159 40.7262C5.28977 40.709 5.41586 40.6661 5.53 40.6L7 39.76C7.31651 39.9752 7.6511 40.1626 8 40.32V42C8 42.2652 8.10535 42.5196 8.29289 42.7071C8.48043 42.8946 8.73478 43 9 43H13C13.2652 43 13.5196 42.8946 13.7071 42.7071C13.8946 42.5196 14 42.2652 14 42V40.32C14.3477 40.1603 14.6821 39.973 15 39.76L16.46 40.6C16.6896 40.7304 16.9615 40.7646 17.2163 40.6953C17.471 40.626 17.6881 40.4587 17.82 40.23L19.82 36.77C19.8865 36.6565 19.93 36.5309 19.9479 36.4005C19.9658 36.2702 19.9578 36.1375 19.9244 36.0103C19.8909 35.883 19.8327 35.7636 19.753 35.6589C19.6733 35.5541 19.5737 35.4662 19.46 35.4L18 34.56C18.04 34.1877 18.04 33.8123 18 33.44L19.46 32.6C19.6732 32.4504 19.8196 32.2236 19.8682 31.9678C19.9167 31.7119 19.8636 31.4473 19.72 31.23Z" fill="black"/>
<path d="M13.93 34C13.93 33.4067 13.754 32.8266 13.4244 32.3333C13.0948 31.8399 12.6262 31.4554 12.078 31.2284C11.5299 31.0013 10.9267 30.9419 10.3447 31.0576C9.76278 31.1734 9.22823 31.4591 8.80867 31.8787C8.38912 32.2982 8.10339 32.8328 7.98764 33.4147C7.87188 33.9967 7.93129 34.5999 8.15836 35.148C8.38542 35.6962 8.76994 36.1648 9.26328 36.4944C9.75663 36.8241 10.3367 37 10.93 37C11.7256 37 12.4887 36.6839 13.0513 36.1213C13.6139 35.5587 13.93 34.7957 13.93 34V34ZM9.92999 34C9.92999 33.8022 9.98864 33.6089 10.0985 33.4444C10.2084 33.28 10.3646 33.1518 10.5473 33.0761C10.73 33.0004 10.9311 32.9806 11.1251 33.0192C11.3191 33.0578 11.4972 33.153 11.6371 33.2929C11.777 33.4327 11.8722 33.6109 11.9108 33.8049C11.9494 33.9989 11.9296 34.2 11.8539 34.3827C11.7782 34.5654 11.65 34.7216 11.4856 34.8315C11.3211 34.9414 11.1278 35 10.93 35C10.6648 35 10.4104 34.8946 10.2229 34.7071C10.0354 34.5196 9.92999 34.2652 9.92999 34Z" fill="black"/>
<path d="M57 8C57.2652 8 57.5196 7.89464 57.7071 7.70711C57.8946 7.51957 58 7.26522 58 7C58 6.73478 57.8946 6.48043 57.7071 6.29289C57.5196 6.10536 57.2652 6 57 6H51C50.7348 6 50.4804 6.10536 50.2929 6.29289C50.1054 6.48043 50 6.73478 50 7C50 7.26522 50.1054 7.51957 50.2929 7.70711C50.4804 7.89464 50.7348 8 51 8H57Z" fill="black"/>
<path d="M48 11C48 11.2652 48.1054 11.5196 48.2929 11.7071C48.4804 11.8946 48.7348 12 49 12H57C57.2652 12 57.5196 11.8946 57.7071 11.7071C57.8946 11.5196 58 11.2652 58 11C58 10.7348 57.8946 10.4804 57.7071 10.2929C57.5196 10.1054 57.2652 10 57 10H49C48.7348 10 48.4804 10.1054 48.2929 10.2929C48.1054 10.4804 48 10.7348 48 11Z" fill="black"/>
<path d="M57 14H53C52.7348 14 52.4804 14.1054 52.2929 14.2929C52.1054 14.4804 52 14.7348 52 15C52 15.2652 52.1054 15.5196 52.2929 15.7071C52.4804 15.8946 52.7348 16 53 16H57C57.2652 16 57.5196 15.8946 57.7071 15.7071C57.8946 15.5196 58 15.2652 58 15C58 14.7348 57.8946 14.4804 57.7071 14.2929C57.5196 14.1054 57.2652 14 57 14Z" fill="black"/>
<path d="M61 2H45C44.7348 2 44.4804 2.10536 44.2929 2.29289C44.1054 2.48043 44 2.73478 44 3V12.15C44 12.4152 44.1054 12.6696 44.2929 12.8571C44.4804 13.0446 44.7348 13.15 45 13.15C45.2652 13.15 45.5196 13.0446 45.7071 12.8571C45.8946 12.6696 46 12.4152 46 12.15V4H60V23C60 23.2652 60.1054 23.5196 60.2929 23.7071C60.4804 23.8946 60.7348 24 61 24C61.2652 24 61.5196 23.8946 61.7071 23.7071C61.8946 23.5196 62 23.2652 62 23V3C62 2.73478 61.8946 2.48043 61.7071 2.29289C61.5196 2.10536 61.2652 2 61 2V2Z" fill="black"/>
</svg>
