<?xml version="1.0" encoding="UTF-8" standalone="no"?> <svg width="64" height="64" viewBox="0 0 64 64" fill="none" xmlns="http://www.w3.org/2000/svg">
<path d="M30.208 14.609C29.7023 14.9843 29.3281 15.5096 29.1386 16.1101C28.949 16.7106 28.9539 17.3556 29.1526 17.9532C29.3512 18.5507 29.7334 19.0703 30.2447 19.4379C30.756 19.8054 31.3703 20.0021 32 20H39.532L44.749 26.257C45.5618 27.2372 46.2709 28.2988 46.865 29.425C46.9254 29.5425 47.0085 29.6468 47.1095 29.732C47.2104 29.8172 47.3273 29.8815 47.4533 29.9213C47.5792 29.961 47.7118 29.9755 47.8434 29.9637C47.975 29.9519 48.1029 29.9142 48.2198 29.8527C48.3367 29.7912 48.4403 29.7072 48.5245 29.6054C48.6088 29.5037 48.672 29.3862 48.7106 29.2599C48.7492 29.1336 48.7624 29.0009 48.7495 28.8694C48.7365 28.7379 48.6976 28.6104 48.635 28.494C47.9763 27.2441 47.1894 26.0661 46.287 24.979L41.695 19.471C42.0393 19.2375 42.3307 18.9343 42.5504 18.581C42.77 18.2277 42.913 17.8322 42.97 17.4201C43.0271 17.0081 42.9969 16.5886 42.8815 16.1889C42.766 15.7892 42.5679 15.4183 42.3 15.1L43.294 14.106C44.4518 12.9406 45.29 11.4967 45.7278 9.91341C46.1657 8.33009 46.1885 6.6607 45.794 5.06602C45.6676 4.56267 45.4102 4.10179 45.0478 3.7303C44.6854 3.35882 44.231 3.08998 43.731 2.95117C43.2309 2.81236 42.703 2.80853 42.201 2.94007C41.6989 3.07162 41.2407 3.33383 40.873 3.70002L40.663 3.90902C40.487 4.08453 40.2486 4.18308 40 4.18308C39.7514 4.18308 39.513 4.08453 39.337 3.90902L38.287 2.86002C37.9893 2.56243 37.6311 2.33229 37.2366 2.1852C36.8422 2.03811 36.4208 1.97749 36.0009 2.00745C35.581 2.03742 35.1724 2.15727 34.8029 2.35888C34.4334 2.56049 34.1115 2.83917 33.859 3.17602L33.541 3.60002C33.4607 3.70818 33.3579 3.79757 33.2396 3.86198C33.1213 3.9264 32.9904 3.96429 32.856 3.97302C32.7222 3.98171 32.588 3.96196 32.4624 3.91508C32.3367 3.8682 32.2224 3.79525 32.127 3.70102C31.7595 3.33327 31.3011 3.06965 30.7984 2.93707C30.2957 2.8045 29.7668 2.80773 29.2658 2.94644C28.7648 3.08514 28.3095 3.35435 27.9466 3.72656C27.5837 4.09878 27.326 4.56066 27.2 5.06502C26.8055 6.6597 26.8283 8.32909 27.2662 9.91241C27.704 11.4957 28.5422 12.9396 29.7 14.105L30.208 14.609ZM31 17C31 16.7348 31.1054 16.4805 31.2929 16.2929C31.4804 16.1054 31.7348 16 32 16H40C40.2652 16 40.5196 16.1054 40.7071 16.2929C40.8946 16.4805 41 16.7348 41 17C41 17.2652 40.8946 17.5196 40.7071 17.7071C40.5196 17.8947 40.2652 18 40 18H32C31.7348 18 31.4804 17.8947 31.2929 17.7071C31.1054 17.5196 31 17.2652 31 17ZM29.14 5.55102C29.1803 5.39002 29.2625 5.24258 29.3784 5.12375C29.4942 5.00492 29.6395 4.91895 29.7994 4.87462C29.9594 4.8303 30.1282 4.82919 30.2887 4.87143C30.4492 4.91366 30.5956 4.99772 30.713 5.11502C31.0107 5.41267 31.3688 5.64288 31.7632 5.79006C32.1576 5.93723 32.579 5.99794 32.9989 5.96807C33.4188 5.9382 33.8274 5.81845 34.1969 5.61692C34.5665 5.4154 34.8885 5.13681 35.141 4.80002L35.459 4.37602C35.5398 4.26863 35.6427 4.17982 35.7607 4.1156C35.8787 4.05138 36.0092 4.01324 36.1432 4.00376C36.2773 3.99428 36.4118 4.01368 36.5377 4.06065C36.6636 4.10762 36.7779 4.18107 36.873 4.27602L37.923 5.32702C38.4743 5.87698 39.2213 6.18582 40 6.18582C40.7787 6.18582 41.5257 5.87698 42.077 5.32702L42.287 5.11702C42.4044 4.99972 42.5508 4.91566 42.7113 4.87343C42.8718 4.83119 43.0406 4.8323 43.2006 4.87662C43.3605 4.92095 43.5058 5.00692 43.6216 5.12575C43.7375 5.24458 43.8198 5.39202 43.86 5.55302C44.1709 6.81307 44.1522 8.13196 43.8056 9.38266C43.459 10.6334 42.7962 11.7738 41.881 12.694L40.52 14.055C40.3486 14.0215 40.1746 14.0031 40 14H32.427L31.118 12.691C30.2032 11.7708 29.5407 10.6305 29.1943 9.37998C28.8478 8.12947 28.8291 6.81084 29.14 5.55102V5.55102Z" fill="black"/>
<path d="M36 30C36.3978 30 36.7794 30.158 37.0607 30.4393C37.342 30.7206 37.5 31.1022 37.5 31.5C37.5 31.7652 37.6054 32.0196 37.7929 32.2071C37.9804 32.3946 38.2348 32.5 38.5 32.5C38.7652 32.5 39.0196 32.3946 39.2071 32.2071C39.3947 32.0196 39.5 31.7652 39.5 31.5C39.4973 30.749 39.2526 30.0188 38.8023 29.4177C38.352 28.8166 37.72 28.3767 37 28.163V27C37 26.7348 36.8947 26.4804 36.7071 26.2929C36.5196 26.1054 36.2652 26 36 26C35.7348 26 35.4804 26.1054 35.2929 26.2929C35.1054 26.4804 35 26.7348 35 27V28.163C34.1944 28.401 33.5016 28.9216 33.0489 29.6292C32.5962 30.3368 32.4139 31.1839 32.5355 32.0151C32.657 32.8463 33.0743 33.6057 33.7107 34.154C34.3472 34.7024 35.16 35.0027 36 35C36.2967 35 36.5867 35.088 36.8334 35.2528C37.08 35.4176 37.2723 35.6519 37.3858 35.926C37.4994 36.2001 37.5291 36.5017 37.4712 36.7926C37.4133 37.0836 37.2704 37.3509 37.0607 37.5607C36.8509 37.7704 36.5836 37.9133 36.2926 37.9712C36.0017 38.0291 35.7001 37.9993 35.426 37.8858C35.1519 37.7723 34.9176 37.58 34.7528 37.3334C34.588 37.0867 34.5 36.7967 34.5 36.5C34.5 36.2348 34.3947 35.9804 34.2071 35.7929C34.0196 35.6054 33.7652 35.5 33.5 35.5C33.2348 35.5 32.9804 35.6054 32.7929 35.7929C32.6054 35.9804 32.5 36.2348 32.5 36.5C32.5027 37.251 32.7474 37.9812 33.1977 38.5823C33.648 39.1834 34.28 39.6233 35 39.837V41C35 41.2652 35.1054 41.5196 35.2929 41.7071C35.4804 41.8946 35.7348 42 36 42C36.2652 42 36.5196 41.8946 36.7071 41.7071C36.8947 41.5196 37 41.2652 37 41V39.837C37.8056 39.599 38.4984 39.0784 38.9511 38.3708C39.4038 37.6632 39.5861 36.8161 39.4645 35.9849C39.343 35.1537 38.9257 34.3943 38.2893 33.846C37.6529 33.2976 36.84 32.9973 36 33C35.6022 33 35.2207 32.842 34.9393 32.5607C34.658 32.2794 34.5 31.8978 34.5 31.5C34.5 31.1022 34.658 30.7206 34.9393 30.4393C35.2207 30.158 35.6022 30 36 30V30Z" fill="black"/>
<path d="M13 55C13 54.4067 12.8241 53.8266 12.4944 53.3333C12.1648 52.8399 11.6962 52.4554 11.1481 52.2284C10.5999 52.0013 9.99667 51.9419 9.41473 52.0576C8.83279 52.1734 8.29824 52.4591 7.87868 52.8787C7.45912 53.2982 7.1734 53.8328 7.05765 54.4147C6.94189 54.9967 7.0013 55.5999 7.22836 56.148C7.45543 56.6962 7.83994 57.1648 8.33329 57.4944C8.82664 57.8241 9.40666 58 10 58C10.7957 58 11.5587 57.6839 12.1213 57.1213C12.6839 56.5587 13 55.7957 13 55ZM9 55C9 54.8022 9.05865 54.6089 9.16853 54.4444C9.27841 54.28 9.43459 54.1518 9.61732 54.0761C9.80004 54.0004 10.0011 53.9806 10.1951 54.0192C10.3891 54.0578 10.5673 54.153 10.7071 54.2929C10.847 54.4327 10.9422 54.6109 10.9808 54.8049C11.0194 54.9989 10.9996 55.2 10.9239 55.3827C10.8482 55.5654 10.72 55.7216 10.5556 55.8315C10.3911 55.9414 10.1978 56 10 56C9.73478 56 9.48043 55.8946 9.29289 55.7071C9.10536 55.5196 9 55.2652 9 55Z" fill="black"/>
<path d="M43.406 47.511C43.3028 47.6033 43.182 47.6738 43.0509 47.7183C42.9198 47.7628 42.7811 47.7804 42.643 47.77L40.615 47.594C40.5911 46.6717 40.2497 45.7858 39.6485 45.0859C39.0474 44.386 38.2232 43.9149 37.315 43.752L27.466 42.016C27.4073 42.0053 27.3477 41.9999 27.288 42H23.656C23.2275 40.7097 23.006 39.3596 23 38C23.0056 37.1357 23.0724 36.2729 23.2 35.418C25.0146 34.4377 26.57 33.0398 27.7375 31.3396C28.9051 29.6395 29.6514 27.6859 29.9148 25.6403C30.1782 23.5947 29.9511 21.5159 29.2522 19.5754C28.5534 17.6349 27.4029 15.8886 25.8958 14.4806C24.3887 13.0727 22.5682 12.0435 20.5847 11.4782C18.6012 10.9128 16.5117 10.8275 14.4888 11.2293C12.4658 11.6311 10.5675 12.5084 8.9506 13.7888C7.33372 15.0692 6.04469 16.716 5.19 18.593C5.08763 18.8328 5.08299 19.1031 5.17706 19.3463C5.27113 19.5895 5.45647 19.7864 5.69358 19.8949C5.93068 20.0034 6.2008 20.015 6.44634 19.9272C6.69188 19.8394 6.89342 19.6592 7.008 19.425C8.15981 16.9344 10.205 14.9672 12.7385 13.913C15.272 12.8588 18.109 12.7946 20.6876 13.733C23.2663 14.6714 25.3984 16.5441 26.6618 18.98C27.9251 21.416 28.2275 24.2375 27.5091 26.8859C26.7907 29.5343 25.1039 31.8162 22.7827 33.2798C20.4616 34.7434 17.6754 35.2819 14.976 34.7886C12.2767 34.2953 9.86101 32.8062 8.20752 30.6163C6.55403 28.4263 5.7833 25.6953 6.048 22.964C6.06243 22.8322 6.0505 22.6988 6.0129 22.5716C5.9753 22.4444 5.91277 22.326 5.82896 22.2232C5.74516 22.1204 5.64174 22.0354 5.52474 21.9729C5.40774 21.9105 5.27949 21.8719 5.14745 21.8595C5.01541 21.8471 4.88223 21.8611 4.75565 21.9007C4.62907 21.9402 4.51162 22.0046 4.41014 22.09C4.30866 22.1753 4.22518 22.2801 4.16455 22.398C4.10393 22.516 4.06737 22.6448 4.057 22.777C3.85083 24.9277 4.18488 27.0959 5.02884 29.0848C5.87281 31.0738 7.19998 32.8205 8.88997 34.1667C10.58 35.5128 12.5793 36.4157 14.7066 36.7935C16.8339 37.1712 19.0219 37.0119 21.072 36.33C21.025 36.89 21 37.448 21 38C21.0051 38.6693 21.0559 39.3376 21.152 40H17V39C17 38.7348 16.8946 38.4804 16.7071 38.2929C16.5196 38.1054 16.2652 38 16 38H3C2.73478 38 2.48043 38.1054 2.29289 38.2929C2.10536 38.4804 2 38.7348 2 39C2 39.2652 2.10536 39.5196 2.29289 39.7071C2.48043 39.8946 2.73478 40 3 40H15V46C15 46.2652 15.1054 46.5196 15.2929 46.7071C15.4804 46.8946 15.7348 47 16 47C16.2652 47 16.5196 46.8946 16.7071 46.7071C16.8946 46.5196 17 46.2652 17 46V42H21.247V58H17V50C17 49.7348 16.8946 49.4804 16.7071 49.2929C16.5196 49.1054 16.2652 49 16 49C15.7348 49 15.4804 49.1054 15.2929 49.2929C15.1054 49.4804 15 49.7348 15 50V60H3C2.73478 60 2.48043 60.1054 2.29289 60.2929C2.10536 60.4804 2 60.7348 2 61C2 61.2652 2.10536 61.5196 2.29289 61.7071C2.48043 61.8946 2.73478 62 3 62H16C16.2652 62 16.5196 61.8946 16.7071 61.7071C16.8946 61.5196 17 61.2652 17 61V60H22.247C22.5122 60 22.7666 59.8946 22.9541 59.7071C23.1416 59.5196 23.247 59.2652 23.247 59V44H27.2L36.963 45.721C37.2253 45.7688 37.4755 45.8686 37.6987 46.0145C37.9219 46.1604 38.1137 46.3494 38.2628 46.5705C38.4119 46.7916 38.5152 47.0403 38.5668 47.3019C38.6183 47.5636 38.6171 47.8329 38.563 48.094L38.519 48.254C38.3819 48.7247 38.0761 49.1285 37.6601 49.388C37.2441 49.6476 36.7471 49.7447 36.264 49.661L29.416 48.453C29.1548 48.4069 28.8859 48.4664 28.6685 48.6185C28.4512 48.7706 28.3031 49.0028 28.257 49.264C28.2109 49.5252 28.2704 49.7941 28.4225 50.0115C28.5746 50.2288 28.8068 50.3769 29.068 50.423L35.916 51.631C36.7479 51.7783 37.605 51.657 38.3634 51.2846C39.1217 50.9123 39.7418 50.3083 40.134 49.56L42.466 49.76C42.8803 49.797 43.2978 49.7471 43.6916 49.6132C44.0855 49.4794 44.447 49.2648 44.753 48.983L50.679 43.55C50.8794 43.3659 51.1153 43.2246 51.3722 43.1348C51.6291 43.045 51.9017 43.0085 52.1732 43.0277C52.4446 43.0469 52.7094 43.1213 52.9511 43.2464C53.1928 43.3714 53.4065 43.5445 53.579 43.755C53.895 44.1842 54.0377 44.7167 53.9785 45.2464C53.9194 45.7761 53.6629 46.264 53.26 46.613L44.46 54.683C43.5386 55.5307 42.332 56.0009 41.08 56H26.246C25.9808 56 25.7264 56.1054 25.5389 56.2929C25.3514 56.4804 25.246 56.7348 25.246 57C25.246 57.2652 25.3514 57.5196 25.5389 57.7071C25.7264 57.8946 25.9808 58 26.246 58H41.08C42.8313 58.0016 44.5193 57.3448 45.809 56.16L54.609 48.091C55.3955 47.3997 55.8868 46.4331 55.9819 45.3904C56.077 44.3476 55.7685 43.3081 55.12 42.486C54.5908 41.8389 53.8711 41.3753 53.0631 41.1611C52.2551 40.9469 51.4002 40.9931 50.62 41.293C50.8696 40.213 50.9971 39.1084 51 38C51 36.1019 50.7306 34.2134 50.2 32.391C50.165 32.263 50.1049 32.1432 50.0232 32.0386C49.9414 31.934 49.8397 31.8468 49.7239 31.7819C49.6081 31.7171 49.4805 31.6759 49.3486 31.6609C49.2168 31.6458 49.0832 31.6572 48.9558 31.6943C48.8283 31.7314 48.7096 31.7935 48.6064 31.877C48.5032 31.9605 48.4176 32.0637 48.3547 32.1805C48.2918 32.2974 48.2528 32.4256 48.24 32.5578C48.2272 32.6899 48.2408 32.8232 48.28 32.95C48.7572 34.5909 48.9996 36.2911 49 38C49.0014 39.8626 48.5963 41.7031 47.813 43.393L43.406 47.511Z" fill="black"/>
<path d="M19.121 26.122C18.7015 26.5416 18.4158 27.0762 18.3001 27.6581C18.1844 28.24 18.2438 28.8432 18.4709 29.3913C18.698 29.9395 19.0825 30.408 19.5758 30.7376C20.0692 31.0672 20.6492 31.2432 21.2425 31.2432C21.8358 31.2432 22.4158 31.0672 22.9092 30.7376C23.4025 30.408 23.787 29.9395 24.0141 29.3913C24.2412 28.8432 24.3006 28.24 24.1849 27.6581C24.0692 27.0762 23.7835 26.5416 23.364 26.122C23.0854 25.8434 22.7547 25.6224 22.3907 25.4716C22.0267 25.3208 21.6365 25.2432 21.2425 25.2432C20.8485 25.2432 20.4583 25.3208 20.0943 25.4716C19.7303 25.6224 19.3996 25.8434 19.121 26.122V26.122ZM21.95 28.95C21.8102 29.0899 21.632 29.1852 21.438 29.2238C21.244 29.2624 21.0429 29.2426 20.8602 29.1669C20.6774 29.0913 20.5212 28.9631 20.4113 28.7986C20.3014 28.6342 20.2428 28.4408 20.2428 28.243C20.2428 28.0452 20.3014 27.8519 20.4113 27.6874C20.5212 27.523 20.6774 27.3948 20.8602 27.3191C21.0429 27.2434 21.244 27.2237 21.438 27.2623C21.632 27.3009 21.8102 27.3961 21.95 27.536C22.1375 27.7235 22.2428 27.9779 22.2428 28.243C22.2428 28.5082 22.1375 28.7625 21.95 28.95Z" fill="black"/>
<path d="M21.95 17.636L10.636 28.95C10.5405 29.0422 10.4643 29.1526 10.4119 29.2746C10.3595 29.3966 10.3319 29.5278 10.3308 29.6606C10.3296 29.7934 10.3549 29.9251 10.4052 30.048C10.4555 30.1708 10.5297 30.2825 10.6236 30.3764C10.7175 30.4703 10.8292 30.5445 10.9521 30.5948C11.0749 30.6451 11.2066 30.6704 11.3394 30.6692C11.4722 30.6681 11.6034 30.6405 11.7254 30.5881C11.8474 30.5357 11.9578 30.4595 12.05 30.364L23.364 19.05C23.5462 18.8614 23.647 18.6088 23.6447 18.3466C23.6424 18.0844 23.5372 17.8336 23.3518 17.6482C23.1664 17.4628 22.9156 17.3576 22.6534 17.3553C22.3912 17.353 22.1386 17.4538 21.95 17.636Z" fill="black"/>
<path d="M10.636 17.636C10.2165 18.0556 9.93083 18.5901 9.81512 19.1721C9.6994 19.754 9.75884 20.3572 9.98592 20.9053C10.213 21.4535 10.5975 21.922 11.0909 22.2516C11.5842 22.5812 12.1642 22.7571 12.7575 22.7571C13.3508 22.7571 13.9308 22.5812 14.4242 22.2516C14.9175 21.922 15.302 21.4535 15.5291 20.9053C15.7562 20.3572 15.8156 19.754 15.6999 19.1721C15.5842 18.5901 15.2985 18.0556 14.879 17.636C14.6004 17.3574 14.2697 17.1363 13.9057 16.9855C13.5417 16.8348 13.1515 16.7571 12.7575 16.7571C12.3635 16.7571 11.9734 16.8348 11.6093 16.9855C11.2453 17.1363 10.9146 17.3574 10.636 17.636ZM13.465 20.464C13.3252 20.6039 13.147 20.6992 12.953 20.7378C12.759 20.7764 12.5579 20.7566 12.3752 20.6809C12.1924 20.6052 12.0362 20.4771 11.9263 20.3126C11.8165 20.1481 11.7578 19.9548 11.7578 19.757C11.7578 19.5592 11.8165 19.3659 11.9263 19.2014C12.0362 19.0369 12.1924 18.9088 12.3752 18.8331C12.5579 18.7574 12.759 18.7376 12.953 18.7762C13.147 18.8148 13.3252 18.9101 13.465 19.05C13.6525 19.2375 13.7578 19.4918 13.7578 19.757C13.7578 20.0222 13.6525 20.2765 13.465 20.464V20.464Z" fill="black"/>
<path d="M57 18C56.7348 18 56.4804 18.1054 56.2929 18.2929C56.1054 18.4805 56 18.7348 56 19V24H52V15C52 14.7348 51.8947 14.4805 51.7071 14.2929C51.5196 14.1054 51.2652 14 51 14H49.7L54 10.317L58.3 14H57C56.7348 14 56.4804 14.1054 56.2929 14.2929C56.1054 14.4805 56 14.7348 56 15C56 15.2653 56.1054 15.5196 56.2929 15.7071C56.4804 15.8947 56.7348 16 57 16H61C61.2042 15.9998 61.4034 15.9371 61.5709 15.8203C61.7384 15.7035 61.8661 15.5382 61.9369 15.3467C62.0077 15.1551 62.0182 14.9465 61.9669 14.7489C61.9156 14.5512 61.805 14.374 61.65 14.241L54.65 8.24104C54.4689 8.08611 54.2384 8.00098 54 8.00098C53.7617 8.00098 53.5311 8.08611 53.35 8.24104L46.35 14.241C46.195 14.374 46.0845 14.5512 46.0332 14.7489C45.9819 14.9465 45.9923 15.1551 46.0631 15.3467C46.1339 15.5382 46.2616 15.7035 46.4291 15.8203C46.5966 15.9371 46.7958 15.9998 47 16H50V25C50 25.2653 50.1054 25.5196 50.2929 25.7071C50.4804 25.8947 50.7348 26 51 26H57C57.2652 26 57.5196 25.8947 57.7071 25.7071C57.8947 25.5196 58 25.2653 58 25V19C58 18.7348 57.8947 18.4805 57.7071 18.2929C57.5196 18.1054 57.2652 18 57 18Z" fill="black"/>
<path d="M57 28C56.7348 28 56.4804 28.1054 56.2929 28.2929C56.1054 28.4804 56 28.7348 56 29V39C56 39.2652 56.1054 39.5196 56.2929 39.7071C56.4804 39.8946 56.7348 40 57 40C57.2652 40 57.5196 39.8946 57.7071 39.7071C57.8946 39.5196 58 39.2652 58 39V29C58 28.7348 57.8946 28.4804 57.7071 28.2929C57.5196 28.1054 57.2652 28 57 28Z" fill="black"/>
<path d="M61 35C60.7348 35 60.4804 35.1054 60.2929 35.2929C60.1054 35.4804 60 35.7348 60 36V48C60 48.2652 60.1054 48.5196 60.2929 48.7071C60.4804 48.8946 60.7348 49 61 49C61.2652 49 61.5196 48.8946 61.7071 48.7071C61.8946 48.5196 62 48.2652 62 48V36C62 35.7348 61.8946 35.4804 61.7071 35.2929C61.5196 35.1054 61.2652 35 61 35Z" fill="black"/>
<path d="M54 32V29C54 28.7348 53.8946 28.4804 53.7071 28.2929C53.5196 28.1054 53.2652 28 53 28C52.7348 28 52.4804 28.1054 52.2929 28.2929C52.1054 28.4804 52 28.7348 52 29V32C52 32.2652 52.1054 32.5196 52.2929 32.7071C52.4804 32.8946 52.7348 33 53 33C53.2652 33 53.5196 32.8946 53.7071 32.7071C53.8946 32.5196 54 32.2652 54 32Z" fill="black"/>
</svg>
